<svg width="109" height="25" fill="none" xmlns="http://www.w3.org/2000/svg"><path d="M108.707 12.707a1 1 0 000-1.414l-6.364-6.364a1 1 0 10-1.414 1.414L106.586 12l-5.657 5.657a1 1 0 101.414 1.414l6.364-6.364zM68 13h40v-2H68v2zM5.396 8.058c-.685 0-1.227.401-1.625 1.204-.393.803-.59 1.919-.59 3.348 0 2.977.777 4.465 2.33 4.465.68 0 1.391-.217 2.135-.65v2.127c-.626.416-1.43.624-2.408.624-1.447 0-2.56-.574-3.34-1.723-.773-1.154-1.16-2.774-1.16-4.86 0-2.086.399-3.712 1.196-4.878.802-1.166 1.916-1.75 3.34-1.75.468 0 .916.065 1.344.194.434.13.897.355 1.389.677l-.791 1.942a6.624 6.624 0 00-.844-.492 2.117 2.117 0 00-.976-.228zM19.202 19h-2.39V8.251h-1.925c-.264 2.965-.527 5.414-.791 7.348-.176 1.236-.495 2.141-.958 2.715-.457.575-1.07.862-1.837.862-.475 0-.864-.065-1.169-.194v-1.977c.176.07.393.105.65.105.329 0 .578-.258.748-.773.175-.516.372-1.673.588-3.472.223-1.799.454-4.037.695-6.715h6.39V19zm9.869 0h-5.792V6.15h5.792v2.066h-3.402v3.058h3.156v2.075h-3.156v3.56h3.402V19zm13.032 3.674h-2.32V19h-5.766v3.674h-2.32V16.89h.756c1.207-3.205 1.98-6.785 2.32-10.74h5.871v10.74h1.46v5.783zm-3.85-5.783V8.25h-1.459a41.672 41.672 0 01-.711 4.439 34.922 34.922 0 01-1.143 4.2h3.314z" fill="#C4C4C4"/></svg>