<svg width="109" height="25" fill="none" xmlns="http://www.w3.org/2000/svg"><path d="M.293 11.293a1 1 0 000 1.414l6.364 6.364a1 1 0 001.414-1.414L2.414 12l5.657-5.657A1 1 0 006.657 4.93L.293 11.293zM41 11H1v2h40v-2zM75.07 19h-2.373V8.251h-3.173V19h-2.39V6.15h7.936V19zm11.082-8.895c0 1.366-.346 2.415-1.037 3.147-.686.726-1.68 1.09-2.98 1.09h-.598V19h-2.39V6.15h3.26c2.496 0 3.745 1.319 3.745 3.955zm-4.615 2.163h.457c.586 0 1.023-.162 1.31-.484.287-.322.43-.85.43-1.582 0-.674-.131-1.172-.395-1.494-.264-.328-.67-.492-1.222-.492h-.58v4.052zM95.37 19h-5.791V6.15h5.791v2.066h-3.4v3.058h3.154v2.075h-3.155v3.56h3.401V19zm13.033 3.674h-2.32V19h-5.766v3.674h-2.32V16.89h.756c1.207-3.205 1.98-6.785 2.32-10.74h5.871v10.74h1.459v5.783zm-3.85-5.783V8.25h-1.459a41.32 41.32 0 01-.712 4.439 34.98 34.98 0 01-1.142 4.2h3.313z" fill="#C4C4C4"/></svg>